<?xml version="1.0" encoding="UTF-8"?><svg id="a" xmlns="http://www.w3.org/2000/svg" viewBox="0 0 500 210.53"><defs><style>.b{fill:#fff;}</style></defs><path class="b" d="M231.79,71.07c-2.05-2.46-5.8-2.46-7.85,0l-4.67,5.6c-.83,.91-1.34,2.12-1.32,3.46,.03,2.53,1.95,4.93,4.45,4.93s3.36-.85,3.95-1.8c.72-1.16,2.4-1.17,3.14-.02,.62,.97,1.46,1.83,3.82,1.83s4.39-2.24,4.53-4.7c.09-1.59-.56-3.04-1.64-4.01l-4.41-5.28Z"/><path class="b" d="M262.58,71.07c-2.05-2.46-5.8-2.46-7.85,0l-4.67,5.6c-.83,.91-1.34,2.12-1.32,3.46,.03,2.53,1.95,4.93,4.45,4.93s3.36-.85,3.95-1.8c.72-1.16,2.4-1.17,3.14-.02,.62,.97,1.46,1.83,3.82,1.83s4.39-2.24,4.53-4.7c.09-1.59-.56-3.04-1.64-4.01l-4.41-5.28Z"/><path class="b" d="M263.82,38.52h-15.51v-5.5c6.81-2.15,11.74-8.56,11.74-16.12,0-9.33-7.51-16.9-16.77-16.9s-16.77,7.57-16.77,16.9c0,7.57,4.94,13.97,11.74,16.12v5.5h-15.51c-15.71,0-28.45,12.83-28.45,28.66v20.72c0,15.83,12.74,28.66,28.45,28.66h41.07c15.71,0,28.45-12.83,28.45-28.66v-20.72c0-15.83-12.74-28.66-28.45-28.66Zm18.03,48.17c0,10.21-8.21,18.49-18.35,18.49h-40.43c-10.13,0-18.35-8.28-18.35-18.49v-19.08c0-10.21,8.21-18.49,18.35-18.49h40.43c10.13,0,18.35,8.28,18.35,18.49v19.08Z"/><path class="b" d="M56.24,178.06h-12.45c-1.28,0-1.91,.64-1.91,1.91v13.32c-2.04,.67-4.34,1-6.89,1-3.06,0-5.94-.84-8.64-2.53-2.7-1.69-4.85-3.97-6.46-6.85-1.61-2.88-2.42-6.02-2.42-9.43s.81-6.46,2.42-9.26c1.61-2.8,3.76-5.01,6.44-6.61,2.68-1.61,5.57-2.41,8.66-2.41,1.95,0,3.88,.33,5.79,.98,1.91,.65,3.69,1.54,5.31,2.65,.41,.29,.83,.43,1.24,.43,.51,0,.99-.27,1.44-.81l7.75-10.12c.32-.41,.48-.83,.48-1.24,0-.54-.27-1.02-.81-1.43-2.94-2.2-6.22-3.9-9.84-5.11-3.62-1.21-7.41-1.81-11.37-1.81-6.51,0-12.43,1.54-17.76,4.61-5.33,3.07-9.53,7.27-12.61,12.58-3.08,5.32-4.62,11.16-4.62,17.52s1.54,12.21,4.62,17.52c3.08,5.32,7.29,9.53,12.64,12.65,5.34,3.12,11.26,4.68,17.74,4.68,4.05,0,7.99-.57,11.8-1.7,3.81-1.13,7.22-2.73,10.22-4.8,.77-.54,1.15-1.3,1.15-2.29v-21.53c0-1.27-.64-1.91-1.91-1.91Z"/><path class="b" d="M111.99,154.23c-4.4-2.58-9.61-3.87-15.6-3.87-5.55,0-10.52,1.36-14.89,4.08-4.37,2.72-7.78,6.38-10.22,10.98-2.44,4.6-3.66,9.64-3.66,15.11s1.28,10.41,3.85,14.99c2.57,4.58,6.15,8.23,10.75,10.93,4.6,2.71,9.78,4.06,15.56,4.06,3.73,0,7.24-.56,10.51-1.7,3.27-1.13,6.23-2.73,8.88-4.8,.51-.41,.77-.89,.77-1.43,0-.38-.14-.78-.43-1.19l-5.89-8.36c-.42-.57-.88-.86-1.39-.86-.41,0-.83,.16-1.24,.48-1.6,1.11-3.23,1.97-4.91,2.55-1.68,.59-3.55,.88-5.62,.88-3.25,0-6.16-.89-8.71-2.67-2.55-1.78-4.36-4.26-5.41-7.45h39.01c1.21,0,1.88-.59,2.01-1.77,.13-1.24,.19-2.5,.19-3.77,0-5.79-1.16-10.97-3.47-15.52-2.31-4.55-5.67-8.12-10.08-10.7Zm-27.81,19.82c.93-3.09,2.51-5.49,4.76-7.21,2.25-1.72,4.91-2.58,7.97-2.58s5.78,.84,7.95,2.53c2.17,1.69,3.7,4.11,4.6,7.26h-25.27Z"/><path class="b" d="M177.88,154.23c-4.4-2.58-9.61-3.87-15.6-3.87-5.55,0-10.52,1.36-14.89,4.08-4.37,2.72-7.78,6.38-10.22,10.98-2.44,4.6-3.66,9.64-3.66,15.11s1.28,10.41,3.85,14.99c2.57,4.58,6.15,8.23,10.75,10.93,4.6,2.71,9.78,4.06,15.56,4.06,3.73,0,7.24-.56,10.51-1.7,3.27-1.13,6.23-2.73,8.88-4.8,.51-.41,.77-.89,.77-1.43,0-.38-.14-.78-.43-1.19l-5.89-8.36c-.42-.57-.88-.86-1.39-.86-.41,0-.83,.16-1.24,.48-1.6,1.11-3.23,1.97-4.91,2.55-1.68,.59-3.55,.88-5.62,.88-3.25,0-6.16-.89-8.71-2.67-2.55-1.78-4.36-4.26-5.41-7.45h39.01c1.21,0,1.88-.59,2.01-1.77,.13-1.24,.19-2.5,.19-3.77,0-5.79-1.16-10.97-3.47-15.52-2.31-4.55-5.67-8.12-10.08-10.7Zm-27.81,19.82c.93-3.09,2.51-5.49,4.76-7.21,2.25-1.72,4.91-2.58,7.97-2.58s5.78,.84,7.95,2.53c2.17,1.69,3.7,4.11,4.6,7.26h-25.27Z"/><path class="b" d="M237.11,174.57l19.24-20.91c.41-.41,.62-.83,.62-1.24,0-.35-.15-.62-.45-.81-.3-.19-.71-.29-1.22-.29h-16.8c-.96,0-1.74,.37-2.35,1.1l-16.66,20.15v-36.19c0-1.27-.64-1.91-1.91-1.91h-12.45c-1.28,0-1.91,.64-1.91,1.91v70.81c0,1.27,.64,1.91,1.91,1.91h12.45c1.28,0,1.91-.64,1.91-1.91v-13.46l6.56-7.11,13.93,21.25c.51,.83,1.28,1.24,2.3,1.24h14.79c.51,0,.91-.1,1.2-.31,.29-.21,.43-.49,.43-.84,0-.38-.13-.76-.38-1.15l-21.2-32.23Z"/><path class="b" d="M283.52,134.46h-12.3c-1.28,0-1.91,.64-1.91,1.91v70.81c0,1.27,.64,1.91,1.91,1.91h12.3c1.28,0,1.91-.64,1.91-1.91v-70.81c0-1.27-.64-1.91-1.91-1.91Z"/><path class="b" d="M355.2,151.32h-9.19c-1.05,0-1.79,.49-2.2,1.48l-1.39,3.25c-4.02-3.79-9.08-5.68-15.17-5.68-5.43,0-10.43,1.34-15.03,4.01-4.6,2.67-8.24,6.3-10.94,10.86-2.7,4.57-4.04,9.57-4.04,15.02s1.34,10.51,4.02,15.11c2.68,4.6,6.32,8.25,10.91,10.93,4.59,2.69,9.62,4.03,15.08,4.03,6.03,0,11.04-1.86,15.03-5.59l1.2,2.86c.41,.99,1.15,1.48,2.2,1.48h9.53c1.28,0,1.91-.64,1.91-1.91v-53.96c0-1.27-.64-1.91-1.91-1.91Zm-15.25,36.55c-1.26,2.18-2.98,3.88-5.17,5.11s-4.6,1.84-7.25,1.84-5.08-.61-7.2-1.84c-2.12-1.23-3.79-2.92-5-5.09-1.21-2.16-1.82-4.63-1.82-7.4s.61-5.27,1.84-7.5c1.23-2.23,2.92-3.97,5.07-5.23,2.15-1.26,4.55-1.89,7.2-1.89s5.06,.64,7.23,1.91c2.17,1.27,3.88,3.02,5.12,5.23,1.24,2.21,1.87,4.7,1.87,7.47s-.63,5.2-1.89,7.38Z"/><path class="b" d="M418.51,153.56c-3.54-2.13-7.66-3.2-12.35-3.2-3,0-6.14,.69-9.43,2.08-3.29,1.38-6.05,3.14-8.28,5.28l-2.06-4.92c-.41-.99-1.15-1.48-2.2-1.48h-9.53c-1.28,0-1.91,.64-1.91,1.91v53.96c0,1.27,.64,1.91,1.91,1.91h12.45c1.28,0,1.91-.64,1.91-1.91v-29.94c0-2.04,.61-3.99,1.84-5.85,1.23-1.86,2.88-3.36,4.95-4.49,2.07-1.13,4.31-1.7,6.7-1.7,3.38,0,6.04,1.15,7.97,3.46,1.93,2.31,2.9,5.4,2.9,9.29v29.22c0,1.27,.64,1.91,1.91,1.91h12.45c1.28,0,1.91-.64,1.91-1.91v-31.04c0-5.12-.97-9.64-2.92-13.54-1.95-3.9-4.69-6.92-8.23-9.05Z"/><path class="b" d="M498.09,134.37h-12.44c-1.28,0-1.91,.64-1.91,1.91v18.43c-3.73-2.9-8.27-4.35-13.6-4.35s-10.43,1.34-15.03,4.01c-4.6,2.67-8.24,6.3-10.94,10.86-2.7,4.57-4.04,9.57-4.04,15.02s1.34,10.51,4.02,15.11c2.68,4.6,6.32,8.25,10.91,10.93,4.6,2.69,9.62,4.03,15.08,4.03,6.03,0,11.04-1.86,15.03-5.59l1.2,2.86c.41,.99,1.15,1.48,2.2,1.48h9.53c1.28,0,1.91-.64,1.91-1.91v-70.91c0-1.27-.64-1.91-1.91-1.91Zm-15.25,53.5c-1.26,2.18-2.98,3.88-5.17,5.11s-4.6,1.84-7.25,1.84-5.08-.61-7.2-1.84c-2.12-1.23-3.79-2.92-5-5.09s-1.82-4.63-1.82-7.4,.61-5.27,1.84-7.5c1.23-2.23,2.92-3.97,5.07-5.23,2.15-1.26,4.55-1.89,7.2-1.89s5.06,.64,7.23,1.91c2.17,1.27,3.88,3.02,5.12,5.23,1.24,2.21,1.87,4.7,1.87,7.47s-.63,5.2-1.89,7.38Z"/></svg>